<svg xmlns="http://www.w3.org/2000/svg" viewBox="0 0 51.00001 54"><title>iphone.compare_elevated_1_dark</title><rect width="51.00001" height="54" fill="none"/><path d="M41.5,46.38a1.13,1.13,0,1,0,.799.331A1.13,1.13,0,0,0,41.5,46.38Zm0,2.87a1.75,1.75,0,1,1,1.75-1.75A1.75,1.75,0,0,1,41.5,49.25Zm2.25-36.5h-4.5a.25.25,0,0,1,0-.5h4.5a.25.25,0,0,1,0,.5ZM48,10H38v5H50V45H38v2a3.74837,3.74837,0,0,1-1.38,3H48a3,3,0,0,0,3-3V13A3,3,0,0,0,48,10Z" fill="#212F3E"/><path d="M22,47.02253a2.08094,2.08094,0,0,1-2.13636,1.985H3.13636A2.08094,2.08094,0,0,1,1,47.02253V4.97747a2.08094,2.08094,0,0,1,2.13636-1.985H5.75a.51.51,0,0,1,.52273.49624V3.985a1.02,1.02,0,0,0,1.04545.99249h8.36364A1.02,1.02,0,0,0,16.72727,3.985V3.48873A.51.51,0,0,1,17.25,2.99249h2.61364A2.08094,2.08094,0,0,1,22,4.97747ZM10.47778,3.22077h2.04444a.24823.24823,0,1,1,0,.49624H10.47778a.24823.24823,0,1,1,0-.49624Zm3.14844-.07941a.32766.32766,0,1,1-.33733.32753A.33255.33255,0,0,1,13.62622,3.14136ZM19.86364,2H3.13636A3.06,3.06,0,0,0,0,4.97747V47.02253A3.06,3.06,0,0,0,3.13636,50H19.86364A3.06,3.06,0,0,0,23,47.02253V4.97747A3.06,3.06,0,0,0,19.86364,2Z" fill="#212F3E"/><path d="M22.61,49.99412H34.06818A2.8859,2.8859,0,0,0,37,47.19929V8.73913A2.84036,2.84036,0,0,0,34.06818,6H24V9h5.90908a.96131.96131,0,0,0,.97727-.92908V7.45455A.47255.47255,0,0,1,31.375,7h2.69318a1.89,1.89,0,0,1,1.95455,1.81818V47.12024A1.9406,1.9406,0,0,1,34.06818,49H23.44A4.10557,4.10557,0,0,1,22.61,49.99412ZM25.38218,7.25578h1.977a.25.25,0,0,1,0,.5h-1.977a.25.25,0,0,1,0-.5Zm3.0446-.08a.33.33,0,1,1-.32621.33A.32811.32811,0,0,1,28.42678,7.17577Z" fill="#212F3E"/></svg>